<?xml version="1.0" encoding="UTF-8"?>
<svg xmlns="http://www.w3.org/2000/svg" xmlns:xlink="http://www.w3.org/1999/xlink" width="384.02pt" height="504.73pt" viewBox="0 0 384.02 504.73" version="1.1">
<defs>
<clipPath id="clip1">
  <path d="M 0 465 L 384.019531 465 L 384.019531 504.730469 L 0 504.730469 Z M 0 465 "/>
</clipPath>
</defs>
<g id="surface1">
<path style=" stroke:none;fill-rule:nonzero;fill:rgb(0%,55.699158%,30.198669%);fill-opacity:1;" d="M 1.886719 0 L 127.945313 53.019531 L 127.945313 103.453125 L 76.628906 38.535156 L 127.945313 117.367188 L 127.945313 139.027344 L 36.960938 69.894531 L 127.945313 153.070313 L 127.945313 162.011719 L 9.949219 113.023438 L 127.945313 174.980469 L 127.945313 179.957031 L 2.832031 162.640625 L 127.945313 192.421875 L 127.945313 196.199219 L 3.085938 210.242188 L 127.945313 208.667969 L 127.945313 212.382813 L 3.527344 259.921875 L 127.945313 225.039063 L 127.945313 232.847656 L 22.980469 305.507813 L 127.945313 244.808594 L 127.945313 259.417969 L 72.597656 325.53125 L 127.945313 273.960938 L 127.945313 307.902344 L 1.886719 350.023438 "/>
<path style=" stroke:none;fill-rule:nonzero;fill:rgb(0%,55.699158%,30.198669%);fill-opacity:1;" d="M 382.070313 0 L 256.015625 53.019531 L 256.015625 103.453125 L 307.332031 38.535156 L 256.015625 117.367188 L 256.015625 139.027344 L 347 69.894531 L 256.015625 153.070313 L 256.015625 162.011719 L 374.011719 113.023438 L 256.015625 174.980469 L 256.015625 179.957031 L 381.128906 162.640625 L 256.015625 192.421875 L 256.015625 196.199219 L 380.875 210.242188 L 256.015625 208.667969 L 256.015625 212.382813 L 380.433594 259.921875 L 256.015625 225.039063 L 256.015625 232.847656 L 360.980469 305.507813 L 256.015625 244.808594 L 256.015625 259.417969 L 311.363281 325.53125 L 256.015625 273.960938 L 256.015625 307.902344 L 382.070313 350.023438 "/>
<path style=" stroke:none;fill-rule:nonzero;fill:rgb(72.198486%,62.69989%,18.399048%);fill-opacity:1;" d="M 244.050781 121.714844 L 224.847656 104.398438 L 192.296875 74.992188 L 139.90625 122.21875 L 139.90625 303.554688 L 159.113281 297.132813 L 159.113281 130.589844 L 192.296875 100.683594 L 224.847656 130.089844 L 224.847656 297.132813 L 244.050781 303.554688 "/>
<path style=" stroke:none;fill-rule:nonzero;fill:rgb(30.999756%,30.599976%,31.399536%);fill-opacity:1;" d="M 38.660156 420.230469 L 21.03125 420.230469 L 21.03125 415.128906 L 24.871094 415.128906 C 23.042969 410.03125 26.632813 404.742188 31.921875 404.679688 C 35.070313 404.679688 37.339844 406.441406 38.535156 409.273438 L 34.128906 411.351563 C 32.929688 408.015625 29.59375 409.148438 29.59375 412.234375 C 29.59375 413.304688 29.84375 414.628906 31.039063 415.003906 L 38.722656 415.003906 L 38.722656 420.230469 Z M 383.203125 444.347656 L 327.734375 444.347656 C 320.808594 444.285156 316.273438 440.191406 316.273438 433.136719 L 316.273438 400.523438 L 325.78125 400.523438 L 325.78125 428.164063 C 325.71875 433.769531 328.613281 435.214844 333.902344 435.214844 L 373.066406 435.214844 C 372.628906 427.472656 366.644531 421.617188 358.902344 421.554688 C 354.808594 421.617188 350.335938 423.503906 347.503906 426.464844 C 345.929688 424.324219 344.355469 422.183594 342.78125 420.042969 C 347.253906 415.320313 353.109375 412.863281 359.59375 412.863281 C 378.355469 412.925781 383.203125 428.164063 383.203125 444.347656 M 364.757813 455.617188 L 356.257813 455.617188 L 356.257813 447.746094 L 364.757813 447.746094 Z M 309.285156 434.710938 C 309.222656 443.90625 302.800781 450.140625 293.667969 450.203125 C 288.632813 450.203125 283.785156 448.566406 280.761719 444.347656 L 253.9375 444.347656 C 249.84375 444.347656 246.191406 442.519531 243.421875 439.5625 C 239.453125 442.835938 233.726563 444.347656 228.625 444.347656 L 206.460938 444.347656 C 201.046875 444.347656 197.207031 441.574219 195.066406 435.972656 C 192.988281 439.183594 189.019531 440.066406 185.433594 440.066406 C 176.363281 440.003906 172.082031 431.503906 172.082031 423.628906 C 172.082031 414.753906 176.429688 407.070313 186.125 407.007813 L 204.257813 406.945313 L 204.257813 428.351563 C 204.257813 432.761719 206.777344 435.28125 211.183594 435.28125 L 228.5 435.28125 C 231.585938 435.28125 234.671875 434.585938 237.316406 432.949219 C 234.542969 429.109375 228.375 426.023438 223.839844 425.203125 L 223.839844 417.398438 C 236.746094 409.714844 251.609375 410.09375 263.632813 419.347656 C 261.492188 424.636719 255.636719 430.621094 250.851563 433.515625 C 252.238281 434.777344 254.125 435.214844 255.953125 435.214844 L 277.992188 435.214844 C 278.054688 425.773438 283.71875 419.347656 293.355469 419.347656 C 302.609375 419.414063 309.285156 425.203125 309.285156 434.710938 M 299.839844 435.027344 C 299.839844 430.996094 298.515625 426.96875 293.792969 426.96875 C 289.261719 426.96875 287.308594 430.492188 287.246094 434.648438 C 287.246094 438.679688 289.199219 442.394531 293.605469 442.457031 C 297.824219 442.394531 299.839844 438.804688 299.839844 435.027344 M 251.921875 421.867188 C 246.507813 419.097656 240.714844 418.910156 235.300781 421.554688 C 239.015625 423.128906 241.785156 425.269531 244.429688 428.351563 C 246.949219 427.15625 250.410156 424.324219 251.921875 421.867188 M 200.859375 400.585938 L 192.421875 400.585938 L 192.421875 392.714844 L 200.859375 392.714844 Z M 188.078125 400.585938 L 179.640625 400.585938 L 179.640625 392.714844 L 188.078125 392.714844 Z M 194.4375 422.875 L 194.4375 413.933594 L 188.203125 413.933594 C 183.480469 413.996094 181.464844 419.539063 181.464844 423.503906 C 181.464844 427.347656 183.542969 432.132813 188.011719 432.195313 C 192.925781 432.132813 194.4375 426.90625 194.4375 422.875 M 153.195313 408.394531 L 144.695313 408.394531 L 144.695313 400.585938 L 153.195313 400.585938 Z M 140.347656 408.394531 L 131.910156 408.394531 L 131.910156 400.585938 L 140.347656 400.585938 Z M 153.761719 431.25 C 153.761719 438.554688 149.039063 444.347656 141.480469 444.347656 L 97.15625 444.347656 C 95.832031 453.351563 88.65625 455.554688 80.65625 455.554688 L 80.65625 447.933594 C 83.804688 447.933594 87.082031 447.429688 88.089844 443.90625 C 75.746094 444.722656 66.867188 440.632813 66.804688 428.855469 C 66.867188 419.851563 73.226563 413.554688 82.230469 413.492188 C 91.109375 413.554688 97.28125 420.355469 97.28125 429.046875 L 97.28125 435.214844 L 110.378906 435.214844 C 114.15625 435.214844 115.226563 431.941406 115.226563 428.667969 L 115.226563 413.492188 L 124.796875 413.492188 L 124.796875 428.289063 C 124.796875 430.621094 124.417969 432.949219 123.664063 435.152344 L 139.46875 435.152344 C 143.308594 435.152344 144.316406 431.753906 144.316406 428.480469 L 144.316406 413.492188 L 153.824219 413.492188 L 153.824219 431.25 Z M 123.851563 455.617188 L 115.414063 455.617188 L 115.414063 447.746094 L 123.851563 447.746094 Z M 87.773438 435.214844 L 87.773438 428.605469 C 87.773438 425.078125 85.695313 422.054688 81.917969 421.992188 C 78.265625 422.054688 76.4375 424.953125 76.4375 428.351563 C 76.4375 431.878906 78.453125 435.089844 82.292969 435.152344 L 87.773438 435.152344 Z M 59.375 433.136719 C 59.3125 440.191406 54.84375 444.285156 47.914063 444.347656 L 23.359375 444.347656 C 10.703125 444.347656 0.816406 439.121094 0.816406 425.269531 L 0.816406 413.621094 L 10.199219 413.621094 L 10.199219 425.269531 C 10.199219 433.707031 16.371094 435.28125 23.484375 435.28125 L 40.988281 435.28125 C 46.152344 435.214844 49.992188 434.648438 49.992188 428.289063 L 49.992188 400.648438 L 59.375 400.648438 "/>
<path style=" stroke:none;fill-rule:nonzero;fill:rgb(30.999756%,30.599976%,31.399536%);fill-opacity:1;" d="M 159.238281 20.402344 L 156.65625 20.402344 L 156.65625 47.160156 L 159.238281 45.019531 Z M 180.710938 45.589844 C 179.890625 46.089844 178.882813 46.46875 177.875 46.722656 C 176.804688 46.972656 175.671875 47.101563 174.476563 47.101563 C 173.089844 47.101563 171.769531 46.910156 170.570313 46.597656 C 169.3125 46.28125 168.242188 45.777344 167.296875 45.148438 C 166.351563 44.519531 165.597656 43.699219 165.09375 42.753906 C 164.589844 41.808594 164.273438 40.738281 164.273438 39.480469 C 164.273438 38.535156 164.464844 37.589844 164.777344 36.773438 C 165.09375 35.953125 165.597656 35.261719 166.164063 34.632813 C 166.792969 34.003906 167.488281 33.5 168.242188 33.058594 C 169.0625 32.617188 169.878906 32.367188 170.761719 32.175781 C 170.257813 32.050781 169.753906 31.863281 169.1875 31.546875 C 168.621094 31.230469 168.054688 30.855469 167.550781 30.414063 C 167.046875 29.972656 166.605469 29.40625 166.289063 28.777344 C 165.976563 28.148438 165.785156 27.390625 165.785156 26.636719 C 165.785156 25.503906 165.976563 24.558594 166.414063 23.804688 C 166.855469 22.984375 167.359375 22.355469 168.117188 21.851563 C 168.808594 21.347656 169.628906 20.96875 170.570313 20.71875 C 171.515625 20.464844 172.523438 20.339844 173.53125 20.339844 C 174.351563 20.339844 175.167969 20.402344 175.988281 20.527344 C 176.804688 20.65625 177.625 20.84375 178.441406 21.09375 L 177.6875 22.859375 C 177.121094 22.667969 176.488281 22.480469 175.925781 22.355469 C 175.292969 22.226563 174.726563 22.226563 174.097656 22.226563 C 173.34375 22.226563 172.648438 22.289063 172.019531 22.480469 C 171.328125 22.667969 170.761719 22.921875 170.257813 23.296875 C 169.753906 23.675781 169.3125 24.117188 168.996094 24.621094 C 168.683594 25.125 168.558594 25.816406 168.558594 26.511719 C 168.558594 27.453125 168.808594 28.210938 169.25 28.839844 C 169.691406 29.46875 170.320313 29.972656 171.074219 30.285156 C 171.832031 30.664063 172.648438 30.917969 173.53125 31.042969 C 174.414063 31.230469 175.292969 31.296875 176.113281 31.296875 L 176.617188 31.296875 L 176.617188 33.308594 L 176.175781 33.308594 C 175.355469 33.308594 174.539063 33.371094 173.65625 33.5 C 172.777344 33.625 172.019531 33.878906 171.199219 34.128906 C 170.445313 34.445313 169.691406 34.820313 169.125 35.261719 C 168.492188 35.765625 167.988281 36.332031 167.675781 36.960938 C 167.296875 37.65625 167.109375 38.410156 167.109375 39.355469 C 167.109375 40.300781 167.296875 41.117188 167.738281 41.808594 C 168.117188 42.503906 168.683594 43.070313 169.375 43.511719 C 170.066406 43.949219 170.886719 44.328125 171.769531 44.519531 C 172.648438 44.769531 173.59375 44.832031 174.601563 44.832031 C 175.546875 44.832031 176.425781 44.769531 177.246094 44.582031 C 178.066406 44.390625 178.882813 44.015625 179.640625 43.511719 Z M 185.746094 47.160156 L 188.328125 47.160156 L 188.328125 27.265625 C 188.328125 26.511719 188.515625 25.816406 188.832031 25.1875 C 189.148438 24.621094 189.585938 24.117188 190.152344 23.675781 C 190.722656 23.234375 191.351563 22.921875 192.042969 22.730469 C 192.734375 22.542969 193.554688 22.417969 194.308594 22.417969 C 195.128906 22.417969 195.882813 22.542969 196.574219 22.796875 C 197.269531 23.046875 197.898438 23.425781 198.402344 23.867188 C 198.90625 24.308594 199.347656 24.808594 199.660156 25.375 L 202.558594 25.375 C 202.179688 24.308594 201.613281 23.363281 200.859375 22.605469 C 200.101563 21.851563 199.09375 21.285156 197.960938 20.84375 C 196.828125 20.464844 195.570313 20.214844 194.183594 20.214844 C 192.988281 20.214844 191.855469 20.339844 190.847656 20.65625 C 189.839844 20.90625 188.894531 21.347656 188.140625 21.914063 C 187.382813 22.480469 186.753906 23.171875 186.375 24.054688 C 185.9375 24.933594 185.746094 25.878906 185.746094 27.015625 Z M 206.148438 20.402344 L 215.402344 47.160156 L 218.300781 47.160156 L 227.238281 20.402344 L 224.34375 20.402344 L 216.914063 43.949219 L 208.980469 20.402344 "/>
<g clip-path="url(#clip1)" clip-rule="nonzero">
<path style=" stroke:none;fill-rule:nonzero;fill:rgb(30.999756%,30.599976%,31.399536%);fill-opacity:1;" d="M 0 465.753906 L 6.105469 465.753906 L 6.105469 482.0625 C 6.105469 484.644531 6.171875 486.34375 6.359375 487.097656 C 6.609375 488.359375 7.242188 489.304688 8.25 490.058594 C 9.253906 490.816406 10.578125 491.191406 12.277344 491.191406 C 13.976563 491.191406 15.300781 490.816406 16.179688 490.121094 C 17.0625 489.429688 17.566406 488.546875 17.753906 487.539063 C 17.945313 486.53125 18.007813 484.832031 18.007813 482.441406 L 18.007813 465.753906 L 24.117188 465.753906 L 24.117188 481.558594 C 24.117188 485.148438 23.925781 487.730469 23.609375 489.242188 C 23.296875 490.75 22.667969 492.011719 21.785156 493.019531 C 20.90625 494.027344 19.707031 494.84375 18.257813 495.472656 C 16.75 496.105469 14.859375 496.355469 12.464844 496.355469 C 9.570313 496.355469 7.429688 496.039063 5.917969 495.347656 C 4.40625 494.65625 3.273438 493.835938 2.394531 492.765625 C 1.511719 491.695313 0.945313 490.5625 0.691406 489.429688 C 0.3125 487.730469 0.125 485.148438 0.125 481.8125 L 0.125 465.753906 Z M 50.246094 495.914063 L 44.453125 495.914063 L 44.453125 484.769531 C 44.453125 482.441406 44.328125 480.867188 44.074219 480.171875 C 43.824219 479.480469 43.445313 478.976563 42.878906 478.535156 C 42.3125 478.160156 41.683594 477.96875 40.863281 477.96875 C 39.855469 477.96875 38.976563 478.222656 38.15625 478.789063 C 37.335938 479.355469 36.835938 480.046875 36.519531 480.992188 C 36.203125 481.875 36.078125 483.574219 36.078125 486.027344 L 36.078125 495.914063 L 30.285156 495.914063 L 30.285156 474.066406 L 35.636719 474.066406 L 35.636719 477.277344 C 37.527344 474.820313 39.917969 473.5625 42.816406 473.5625 C 44.074219 473.5625 45.273438 473.816406 46.277344 474.253906 C 47.347656 474.695313 48.105469 475.324219 48.671875 476.019531 C 49.238281 476.710938 49.617188 477.527344 49.804688 478.472656 C 49.996094 479.355469 50.121094 480.675781 50.121094 482.378906 L 50.121094 495.914063 Z M 56.101563 465.753906 L 61.894531 465.753906 L 61.894531 471.109375 L 56.101563 471.109375 Z M 56.101563 474.066406 L 61.894531 474.066406 L 61.894531 495.914063 L 56.101563 495.914063 Z M 73.792969 495.914063 L 64.980469 474.066406 L 71.023438 474.066406 L 75.117188 485.210938 L 76.3125 488.925781 C 76.628906 487.980469 76.816406 487.351563 76.878906 487.035156 C 77.070313 486.40625 77.257813 485.777344 77.507813 485.210938 L 81.664063 474.066406 L 87.582031 474.066406 L 78.894531 495.914063 Z M 103.828125 488.925781 L 109.558594 489.871094 C 108.804688 491.949219 107.671875 493.585938 106.03125 494.65625 C 104.460938 495.789063 102.441406 496.292969 100.050781 496.292969 C 96.273438 496.292969 93.441406 495.03125 91.613281 492.578125 C 90.164063 490.5625 89.472656 488.109375 89.472656 485.085938 C 89.472656 481.496094 90.417969 478.664063 92.304688 476.585938 C 94.195313 474.570313 96.589844 473.5 99.484375 473.5 C 102.757813 473.5 105.277344 474.570313 107.164063 476.710938 C 109.054688 478.851563 109.9375 482.125 109.875 486.597656 L 95.390625 486.597656 C 95.453125 488.296875 95.894531 489.617188 96.777344 490.5625 C 97.660156 491.507813 98.792969 492.011719 100.113281 492.011719 C 100.996094 492.011719 101.753906 491.757813 102.378906 491.253906 C 103.011719 490.816406 103.515625 490.058594 103.828125 488.925781 M 104.144531 483.132813 C 104.082031 481.433594 103.703125 480.171875 102.882813 479.355469 C 102.066406 478.472656 101.058594 478.03125 99.863281 478.03125 C 98.601563 478.03125 97.53125 478.472656 96.714844 479.417969 C 95.894531 480.300781 95.519531 481.558594 95.519531 483.132813 Z M 120.136719 495.914063 L 114.34375 495.914063 L 114.34375 474.066406 L 119.695313 474.066406 L 119.695313 477.152344 C 120.640625 475.703125 121.460938 474.695313 122.152344 474.253906 C 122.90625 473.816406 123.726563 473.5625 124.671875 473.5625 C 125.992188 473.5625 127.253906 473.941406 128.449219 474.632813 L 126.6875 479.667969 C 125.742188 479.039063 124.796875 478.726563 123.980469 478.726563 C 123.160156 478.726563 122.464844 478.914063 121.898438 479.417969 C 121.335938 479.859375 120.894531 480.675781 120.578125 481.8125 C 120.265625 483.007813 120.074219 485.402344 120.074219 489.113281 L 120.074219 495.914063 Z M 128.953125 489.679688 L 134.746094 488.800781 C 134.996094 489.933594 135.5 490.75 136.257813 491.382813 C 137.011719 491.949219 138.082031 492.261719 139.40625 492.261719 C 140.914063 492.261719 142.046875 492.011719 142.742188 491.445313 C 143.246094 491.066406 143.496094 490.5625 143.496094 489.871094 C 143.496094 489.429688 143.371094 489.050781 143.058594 488.800781 C 142.742188 488.546875 142.109375 488.296875 141.105469 488.042969 C 136.445313 487.035156 133.484375 486.09375 132.226563 485.210938 C 130.527344 484.015625 129.644531 482.378906 129.644531 480.300781 C 129.644531 478.410156 130.398438 476.835938 131.910156 475.515625 C 133.421875 474.191406 135.753906 473.5625 138.839844 473.5625 C 141.796875 473.5625 144.0625 474.066406 145.511719 475.011719 C 146.960938 475.953125 147.96875 477.402344 148.535156 479.355469 L 143.121094 480.363281 C 142.867188 479.480469 142.425781 478.851563 141.796875 478.410156 C 141.167969 477.96875 140.222656 477.71875 139.027344 477.71875 C 137.515625 477.71875 136.445313 477.90625 135.753906 478.347656 C 135.3125 478.664063 135.121094 479.039063 135.121094 479.542969 C 135.121094 479.984375 135.3125 480.300781 135.6875 480.613281 C 136.191406 480.992188 138.019531 481.558594 141.105469 482.25 C 144.1875 482.945313 146.328125 483.824219 147.527344 484.832031 C 148.722656 485.839844 149.355469 487.289063 149.355469 489.113281 C 149.355469 491.128906 148.535156 492.828125 146.835938 494.277344 C 145.132813 495.726563 142.679688 496.417969 139.40625 496.417969 C 136.445313 496.417969 134.050781 495.789063 132.351563 494.59375 C 130.589844 493.394531 129.457031 491.757813 128.953125 489.679688 M 154.390625 465.753906 L 160.183594 465.753906 L 160.183594 471.109375 L 154.390625 471.109375 Z M 154.390625 474.066406 L 160.183594 474.066406 L 160.183594 495.914063 L 154.390625 495.914063 Z M 176.050781 474.066406 L 176.050781 478.664063 L 172.085938 478.664063 L 172.085938 487.476563 C 172.085938 489.242188 172.144531 490.3125 172.210938 490.5625 C 172.273438 490.878906 172.460938 491.066406 172.714844 491.316406 C 172.964844 491.507813 173.28125 491.632813 173.65625 491.632813 C 174.226563 491.632813 174.980469 491.445313 175.988281 491.066406 L 176.492188 495.535156 C 175.167969 496.105469 173.65625 496.417969 171.894531 496.417969 C 170.886719 496.417969 169.941406 496.230469 169.0625 495.914063 C 168.242188 495.535156 167.613281 495.097656 167.234375 494.53125 C 166.855469 493.960938 166.605469 493.207031 166.414063 492.261719 C 166.289063 491.570313 166.226563 490.246094 166.226563 488.171875 L 166.226563 478.664063 L 163.582031 478.664063 L 163.582031 474.066406 L 166.226563 474.066406 L 166.226563 469.722656 L 172.019531 466.382813 L 172.019531 474.066406 Z M 177.371094 474.066406 L 183.542969 474.066406 L 188.769531 489.554688 L 193.871094 474.066406 L 199.851563 474.066406 L 192.171875 495.097656 L 190.785156 498.875 C 190.28125 500.132813 189.777344 501.140625 189.335938 501.769531 C 188.894531 502.464844 188.328125 502.96875 187.761719 503.40625 C 187.195313 503.847656 186.4375 504.164063 185.558594 504.351563 C 184.675781 504.605469 183.730469 504.730469 182.597656 504.730469 C 181.464844 504.730469 180.394531 504.605469 179.324219 504.351563 L 178.820313 499.820313 C 179.703125 500.007813 180.519531 500.070313 181.273438 500.070313 C 182.597656 500.070313 183.605469 499.691406 184.234375 498.875 C 184.863281 498.117188 185.367188 497.109375 185.683594 495.851563 Z M 213.828125 484.644531 C 213.828125 482.753906 214.332031 480.867188 215.277344 479.101563 C 216.222656 477.339844 217.546875 475.953125 219.308594 475.011719 C 221.070313 474.066406 222.960938 473.5625 225.101563 473.5625 C 228.375 473.5625 231.082031 474.632813 233.222656 476.773438 C 235.363281 478.914063 236.371094 481.621094 236.371094 484.894531 C 236.371094 488.171875 235.300781 490.941406 233.160156 493.082031 C 231.019531 495.285156 228.375 496.355469 225.101563 496.355469 C 223.085938 496.355469 221.195313 495.914063 219.371094 494.96875 C 217.546875 494.089844 216.160156 492.765625 215.214844 491.003906 C 214.332031 489.304688 213.828125 487.164063 213.828125 484.644531 M 219.746094 484.957031 C 219.746094 487.097656 220.253906 488.800781 221.320313 489.933594 C 222.328125 491.066406 223.589844 491.632813 225.101563 491.632813 C 226.609375 491.632813 227.871094 491.066406 228.878906 489.933594 C 229.886719 488.800781 230.390625 487.097656 230.390625 484.894531 C 230.390625 482.753906 229.886719 481.117188 228.878906 479.984375 C 227.871094 478.851563 226.609375 478.285156 225.101563 478.285156 C 223.589844 478.285156 222.328125 478.851563 221.320313 479.984375 C 220.253906 481.179688 219.746094 482.816406 219.746094 484.957031 M 238.386719 474.066406 L 241.597656 474.066406 L 241.597656 472.429688 C 241.597656 470.601563 241.785156 469.21875 242.164063 468.335938 C 242.539063 467.453125 243.296875 466.699219 244.304688 466.132813 C 245.375 465.566406 246.695313 465.316406 248.269531 465.316406 C 249.90625 465.316406 251.546875 465.566406 253.121094 466.070313 L 252.363281 470.097656 C 251.421875 469.847656 250.539063 469.785156 249.71875 469.785156 C 248.898438 469.785156 248.269531 469.972656 247.894531 470.351563 C 247.515625 470.730469 247.328125 471.484375 247.328125 472.617188 L 247.328125 474.191406 L 251.671875 474.191406 L 251.671875 478.726563 L 247.328125 478.726563 L 247.328125 496.039063 L 241.535156 496.039063 L 241.535156 478.726563 L 238.324219 478.726563 L 238.324219 474.066406 Z M 273.394531 495.914063 L 273.394531 470.855469 L 264.453125 470.855469 L 264.453125 465.753906 L 288.378906 465.753906 L 288.378906 470.855469 L 279.4375 470.855469 L 279.4375 495.914063 Z M 293.480469 480.738281 L 288.253906 479.796875 C 288.820313 477.65625 289.828125 476.144531 291.273438 475.136719 C 292.726563 474.128906 294.867188 473.625 297.699219 473.625 C 300.28125 473.625 302.171875 473.941406 303.429688 474.570313 C 304.6875 475.199219 305.566406 475.953125 306.074219 476.898438 C 306.578125 477.84375 306.828125 479.542969 306.828125 482.0625 L 306.765625 488.800781 C 306.765625 490.691406 306.828125 492.136719 307.019531 493.019531 C 307.207031 493.902344 307.519531 494.90625 308.023438 495.914063 L 302.296875 495.914063 C 302.171875 495.535156 301.980469 494.96875 301.730469 494.214844 C 301.664063 493.902344 301.539063 493.648438 301.539063 493.523438 C 300.53125 494.464844 299.523438 495.222656 298.390625 495.664063 C 297.257813 496.167969 296.0625 496.355469 294.800781 496.355469 C 292.535156 496.355469 290.773438 495.726563 289.515625 494.53125 C 288.191406 493.332031 287.5625 491.757813 287.5625 489.933594 C 287.5625 488.671875 287.878906 487.601563 288.441406 486.660156 C 289.007813 485.714844 289.890625 484.957031 290.898438 484.453125 C 291.96875 483.953125 293.480469 483.511719 295.496094 483.132813 C 298.203125 482.628906 300.089844 482.125 301.101563 481.683594 L 301.101563 481.117188 C 301.101563 479.984375 300.847656 479.230469 300.28125 478.726563 C 299.714844 478.285156 298.707031 478.03125 297.195313 478.03125 C 296.1875 478.03125 295.367188 478.222656 294.800781 478.664063 C 294.296875 478.976563 293.855469 479.734375 293.480469 480.738281 M 301.226563 485.402344 C 300.46875 485.652344 299.335938 485.964844 297.699219 486.28125 C 296.125 486.597656 295.054688 486.972656 294.550781 487.289063 C 293.796875 487.855469 293.417969 488.484375 293.417969 489.304688 C 293.417969 490.121094 293.730469 490.816406 294.296875 491.382813 C 294.929688 491.949219 295.683594 492.261719 296.628906 492.261719 C 297.699219 492.261719 298.644531 491.949219 299.589844 491.253906 C 300.28125 490.75 300.722656 490.121094 300.972656 489.367188 C 301.101563 488.863281 301.226563 487.917969 301.226563 486.53125 Z M 312.371094 495.914063 L 312.371094 465.753906 L 318.164063 465.753906 L 318.164063 476.585938 C 319.925781 474.570313 322.066406 473.5625 324.460938 473.5625 C 327.105469 473.5625 329.308594 474.507813 331.070313 476.457031 C 332.835938 478.410156 333.652344 481.117188 333.652344 484.769531 C 333.652344 488.484375 332.769531 491.382813 331.007813 493.394531 C 329.246094 495.410156 327.105469 496.417969 324.519531 496.417969 C 323.261719 496.417969 322.066406 496.105469 320.808594 495.472656 C 319.609375 494.84375 318.539063 493.960938 317.660156 492.703125 L 317.660156 495.914063 Z M 318.101563 484.519531 C 318.101563 486.785156 318.476563 488.421875 319.171875 489.554688 C 320.175781 491.066406 321.5 491.886719 323.136719 491.886719 C 324.394531 491.886719 325.464844 491.316406 326.410156 490.246094 C 327.292969 489.175781 327.730469 487.414063 327.730469 485.085938 C 327.730469 482.566406 327.292969 480.804688 326.347656 479.667969 C 325.464844 478.597656 324.269531 478.03125 322.882813 478.03125 C 321.5 478.03125 320.367188 478.535156 319.421875 479.667969 C 318.539063 480.675781 318.101563 482.316406 318.101563 484.519531 M 352.667969 495.914063 L 352.667969 492.640625 C 351.851563 493.773438 350.839844 494.71875 349.519531 495.410156 C 348.195313 496.105469 346.875 496.417969 345.425781 496.417969 C 343.980469 496.417969 342.65625 496.105469 341.460938 495.472656 C 340.265625 494.84375 339.445313 493.902344 338.941406 492.765625 C 338.4375 491.570313 338.1875 489.996094 338.1875 487.917969 L 338.1875 474.128906 L 343.980469 474.128906 L 343.980469 484.140625 C 343.980469 487.226563 344.105469 489.113281 344.292969 489.808594 C 344.480469 490.5 344.859375 491.066406 345.425781 491.445313 C 345.992188 491.820313 346.6875 492.074219 347.566406 492.074219 C 348.574219 492.074219 349.453125 491.820313 350.210938 491.253906 C 350.96875 490.691406 351.535156 490.058594 351.785156 489.242188 C 352.101563 488.421875 352.226563 486.46875 352.226563 483.320313 L 352.226563 474.128906 L 358.019531 474.128906 L 358.019531 495.976563 L 352.667969 495.976563 Z M 363.8125 495.914063 L 363.8125 465.753906 L 369.605469 465.753906 L 369.605469 481.746094 L 376.34375 474.066406 L 383.457031 474.066406 L 376.027344 482.0625 L 384.023438 495.914063 L 377.789063 495.914063 L 372.3125 486.09375 L 369.605469 488.925781 L 369.605469 495.914063 "/>
</g>
<path style=" stroke:none;fill-rule:nonzero;fill:rgb(30.999756%,30.599976%,31.399536%);fill-opacity:1;" d="M 168.808594 347.570313 L 168.808594 350.71875 L 150.613281 350.71875 C 150.613281 349.898438 150.738281 349.144531 150.988281 348.449219 C 151.429688 347.253906 152.1875 346.058594 153.195313 344.863281 C 154.199219 343.664063 155.710938 342.34375 157.601563 340.832031 C 160.621094 338.4375 162.640625 336.550781 163.644531 335.164063 C 164.714844 333.78125 165.21875 332.457031 165.21875 331.199219 C 165.21875 329.875 164.714844 328.804688 163.773438 327.921875 C 162.828125 327.042969 161.566406 326.601563 159.992188 326.601563 C 158.355469 326.601563 157.035156 327.105469 156.089844 328.050781 C 155.082031 328.996094 154.640625 330.316406 154.578125 332.015625 L 151.117188 331.703125 C 151.367188 329.183594 152.25 327.230469 153.824219 325.910156 C 155.398438 324.585938 157.476563 323.894531 160.058594 323.894531 C 162.703125 323.894531 164.777344 324.585938 166.351563 326.035156 C 167.929688 327.484375 168.683594 329.246094 168.683594 331.324219 C 168.683594 332.394531 168.429688 333.464844 167.992188 334.472656 C 167.550781 335.480469 166.792969 336.613281 165.722656 337.746094 C 164.652344 338.878906 162.953125 340.453125 160.496094 342.46875 C 158.484375 344.105469 157.160156 345.238281 156.59375 345.867188 C 156.027344 346.4375 155.523438 347.066406 155.144531 347.632813 L 168.808594 347.632813 Z M 172.460938 337.496094 C 172.460938 334.347656 172.777344 331.765625 173.46875 329.875 C 174.160156 327.925781 175.105469 326.476563 176.429688 325.40625 C 177.75 324.335938 179.386719 323.832031 181.402344 323.832031 C 182.914063 323.832031 184.171875 324.144531 185.304688 324.714844 C 186.4375 325.28125 187.320313 326.097656 188.078125 327.230469 C 188.832031 328.300781 189.398438 329.625 189.777344 331.199219 C 190.21875 332.773438 190.40625 334.851563 190.40625 337.558594 C 190.40625 340.707031 190.089844 343.222656 189.398438 345.175781 C 188.707031 347.128906 187.761719 348.578125 186.4375 349.648438 C 185.117188 350.71875 183.417969 351.222656 181.402344 351.222656 C 178.757813 351.222656 176.679688 350.277344 175.167969 348.449219 C 173.34375 346.183594 172.460938 342.53125 172.460938 337.496094 M 175.925781 337.496094 C 175.925781 341.902344 176.429688 344.796875 177.496094 346.308594 C 178.570313 347.757813 179.828125 348.511719 181.402344 348.511719 C 182.976563 348.511719 184.234375 347.757813 185.304688 346.308594 C 186.375 344.863281 186.878906 341.902344 186.878906 337.558594 C 186.878906 333.148438 186.375 330.191406 185.304688 328.742188 C 184.234375 327.296875 182.914063 326.539063 181.339844 326.539063 C 179.765625 326.539063 178.507813 327.167969 177.625 328.492188 C 176.554688 330.066406 175.925781 333.089844 175.925781 337.496094 M 193.871094 337.496094 C 193.871094 334.347656 194.183594 331.765625 194.875 329.875 C 195.570313 327.925781 196.515625 326.476563 197.835938 325.40625 C 199.160156 324.335938 200.796875 323.832031 202.808594 323.832031 C 204.320313 323.832031 205.578125 324.144531 206.714844 324.714844 C 207.847656 325.28125 208.730469 326.097656 209.484375 327.230469 C 210.175781 328.300781 210.808594 329.625 211.183594 331.199219 C 211.625 332.773438 211.8125 334.851563 211.8125 337.558594 C 211.8125 340.707031 211.5 343.222656 210.808594 345.175781 C 210.113281 347.128906 209.167969 348.578125 207.847656 349.648438 C 206.523438 350.71875 204.824219 351.222656 202.808594 351.222656 C 200.164063 351.222656 198.089844 350.277344 196.578125 348.449219 C 194.8125 346.183594 193.871094 342.53125 193.871094 337.496094 M 197.332031 337.496094 C 197.332031 341.902344 197.835938 344.796875 198.90625 346.308594 C 199.976563 347.757813 201.300781 348.511719 202.808594 348.511719 C 204.382813 348.511719 205.644531 347.757813 206.714844 346.308594 C 207.785156 344.863281 208.289063 341.902344 208.289063 337.558594 C 208.289063 333.148438 207.785156 330.191406 206.714844 328.742188 C 205.644531 327.296875 204.320313 326.539063 202.746094 326.539063 C 201.171875 326.539063 199.976563 327.167969 199.03125 328.492188 C 197.960938 330.066406 197.332031 333.089844 197.332031 337.496094 M 232.84375 330.507813 L 229.507813 330.757813 C 229.191406 329.496094 228.816406 328.554688 228.246094 327.925781 C 227.304688 326.980469 226.171875 326.539063 224.847656 326.539063 C 223.777344 326.539063 222.832031 326.851563 222.015625 327.421875 C 220.945313 328.175781 220.125 329.308594 219.496094 330.757813 C 218.867188 332.207031 218.550781 334.285156 218.550781 336.929688 C 219.371094 335.730469 220.378906 334.851563 221.511719 334.21875 C 222.707031 333.652344 223.902344 333.339844 225.226563 333.339844 C 227.492188 333.339844 229.382813 334.15625 231.019531 335.730469 C 232.59375 337.367188 233.410156 339.445313 233.410156 341.964844 C 233.410156 343.664063 233.035156 345.238281 232.277344 346.6875 C 231.523438 348.136719 230.515625 349.269531 229.191406 350.023438 C 227.871094 350.78125 226.421875 351.15625 224.785156 351.15625 C 221.953125 351.15625 219.683594 350.152344 217.859375 348.136719 C 216.097656 346.121094 215.214844 342.785156 215.214844 338.1875 C 215.214844 333.023438 216.222656 329.246094 218.171875 326.917969 C 219.871094 324.902344 222.203125 323.832031 225.101563 323.832031 C 227.242188 323.832031 229.066406 324.398438 230.453125 325.59375 C 231.773438 326.789063 232.59375 328.425781 232.84375 330.507813 M 219.054688 342.027344 C 219.054688 343.160156 219.308594 344.230469 219.8125 345.300781 C 220.316406 346.308594 221.007813 347.128906 221.890625 347.695313 C 222.769531 348.261719 223.714844 348.511719 224.722656 348.511719 C 226.171875 348.511719 227.367188 347.945313 228.4375 346.8125 C 229.445313 345.679688 229.949219 344.167969 229.949219 342.21875 C 229.949219 340.390625 229.445313 338.878906 228.4375 337.808594 C 227.429688 336.738281 226.171875 336.234375 224.597656 336.234375 C 223.085938 336.234375 221.761719 336.738281 220.691406 337.808594 C 219.558594 338.941406 219.054688 340.328125 219.054688 342.027344 "/>
</g>
</svg>
